<svg id="Layer_1" data-name="Layer 1" xmlns="http://www.w3.org/2000/svg" viewBox="0 0 528 458"><defs><style>.cls-1{fill:#666;}.cls-2{fill:#fff;}</style></defs><title>Horizontal</title><path d="M222.57,213.15v29.21H201.41V216.8c0-6.37-2.43-8.8-6.27-8.8-4.31,0-8,2.71-8,10.3v24.06H166V191.15h20.13v5.05a21.33,21.33,0,0,1,15.45-6C213.39,190.22,222.57,197,222.57,213.15Z"/><path d="M282.39,214.84v27.52H262.73v-6.74c-2.43,5.15-7.3,7.68-14.51,7.68-12.54,0-19-7.11-19-15.91,0-9.92,7.49-15.45,23.4-15.45h8.52c-.66-3.93-3.65-6-9.64-6a23.1,23.1,0,0,0-13.11,4L231.65,196c6-3.74,15.07-5.8,23-5.8C272.28,190.22,282.39,197.8,282.39,214.84ZM261.23,225.7v-3.56H256c-4.49,0-6.46,1.5-6.46,4.31,0,2.34,1.87,4.12,5.06,4.12A6.69,6.69,0,0,0,261.23,225.7Z"/><path d="M348.1,213.15v29.21H326.95V216.8c0-6.37-2.43-8.8-6.27-8.8-4.31,0-8,2.71-8,10.3v24.06H291.56V191.15h20.13v5.05a21.33,21.33,0,0,1,15.45-6C338.93,190.22,348.1,197,348.1,213.15Z"/><path d="M355.5,216.71c0-15.54,12.45-26.49,29.77-26.49s29.77,11,29.77,26.49-12.36,26.59-29.77,26.59S355.5,232.25,355.5,216.71Zm38.1,0c0-6.65-3.65-10-8.33-10s-8.33,3.37-8.33,10,3.65,10.11,8.33,10.11S393.6,223.35,393.6,216.71Z"/><path class="cls-1" d="M413,260.8l2.48-5.35a12.16,12.16,0,0,0,8.12,2.67c5.54,0,8.61-3.37,8.61-9.8V192.39h7v55.93c0,9.6-5.35,15.84-15.25,15.84C419.84,264.17,415.58,263.08,413,260.8ZM430.63,176a5.07,5.07,0,0,1,5.15-5,5,5,0,0,1,5.15,4.85,5.15,5.15,0,0,1-10.3.1Z"/><path class="cls-1" d="M451.62,238.52l3.17-5.54c4.16,3.27,11.19,5.84,18.51,5.84,9.9,0,14-3.37,14-8.51,0-13.56-33.76-2.87-33.76-23.46,0-8.51,7.33-14.85,20.59-14.85,6.73,0,14.06,1.88,18.41,4.85l-3.07,5.64A26.69,26.69,0,0,0,474.09,198c-9.41,0-13.56,3.66-13.56,8.61,0,14.06,33.76,3.46,33.76,23.46,0,9-7.92,14.85-21.48,14.85C464.19,245,455.88,242.19,451.62,238.52Z"/><rect x="30.04" y="157.21" width="125.41" height="116" rx="15.85" ry="15.85"/><path class="cls-2" d="M132.77,235.83a15.21,15.21,0,0,0-9.69,1.47l-9.48-10.88A19.42,19.42,0,0,0,90.51,200l-11-12.61a15.33,15.33,0,1,0-7.74,6.49l9.92,11.38A19.37,19.37,0,0,0,77,223.85l-13.93,9.71a15.33,15.33,0,1,0,7.45,10.9l14.1-9.82a19.37,19.37,0,0,0,22.55-.21l8.94,10.25a15.28,15.28,0,1,0,16.65-8.85Z"/></svg>