<svg id="Layer_1" data-name="Layer 1" xmlns="http://www.w3.org/2000/svg" viewBox="0 0 512 512"><defs><style>.cls-1{fill:#666;}.cls-2{fill:#fff;}</style></defs><title>vertical</title><path d="M153.57,357.15v29.21H132.41V360.8c0-6.37-2.43-8.8-6.27-8.8-4.31,0-8,2.71-8,10.3v24.06H97V335.15h20.13v5.05a21.33,21.33,0,0,1,15.45-6C144.39,334.22,153.57,341,153.57,357.15Z"/><path d="M213.39,358.84v27.52H193.73v-6.74c-2.43,5.15-7.3,7.68-14.51,7.68-12.54,0-19-7.11-19-15.91,0-9.92,7.49-15.45,23.4-15.45h8.52c-.66-3.93-3.65-6-9.64-6a23.1,23.1,0,0,0-13.11,4L162.65,340c6-3.74,15.07-5.8,23-5.8C203.28,334.22,213.39,341.8,213.39,358.84ZM192.23,369.7v-3.56H187c-4.49,0-6.46,1.5-6.46,4.31,0,2.34,1.87,4.12,5.06,4.12A6.69,6.69,0,0,0,192.23,369.7Z"/><path d="M279.1,357.15v29.21H257.95V360.8c0-6.37-2.43-8.8-6.27-8.8-4.31,0-8,2.71-8,10.3v24.06H222.56V335.15h20.13v5.05a21.33,21.33,0,0,1,15.45-6C269.93,334.22,279.1,341,279.1,357.15Z"/><path d="M286.5,360.71c0-15.54,12.45-26.49,29.77-26.49s29.77,11,29.77,26.49-12.36,26.59-29.77,26.59S286.5,376.25,286.5,360.71Zm38.1,0c0-6.65-3.65-10-8.33-10s-8.33,3.37-8.33,10,3.65,10.11,8.33,10.11S324.6,367.35,324.6,360.71Z"/><path class="cls-1" d="M340,401.8l2.48-5.35a12.16,12.16,0,0,0,8.12,2.67c5.54,0,8.61-3.37,8.61-9.8V333.39h7v55.93c0,9.6-5.35,15.84-15.25,15.84C346.84,405.17,342.58,404.08,340,401.8ZM357.63,317a5.07,5.07,0,0,1,5.15-5,5,5,0,0,1,5.15,4.85,5.15,5.15,0,0,1-10.3.1Z"/><path class="cls-1" d="M378.62,379.52l3.17-5.54c4.16,3.27,11.19,5.84,18.51,5.84,9.9,0,14-3.37,14-8.51,0-13.56-33.76-2.87-33.76-23.46,0-8.51,7.33-14.85,20.59-14.85,6.73,0,14.06,1.88,18.41,4.85l-3.07,5.64A26.69,26.69,0,0,0,401.09,339c-9.41,0-13.56,3.66-13.56,8.61,0,14.06,33.76,3.46,33.76,23.46,0,9-7.92,14.85-21.48,14.85C391.19,386,382.88,383.19,378.62,379.52Z"/><rect x="155.19" y="98.42" width="207.11" height="191.58" rx="15.85" ry="15.85"/><path class="cls-2" d="M324.84,228.26a25.11,25.11,0,0,0-16,2.43l-15.66-18A32.08,32.08,0,0,0,255.06,169L236.9,148.19a25.31,25.31,0,1,0-12.78,10.71l16.39,18.8a32,32,0,0,0-7.76,30.76l-23,16a25.31,25.31,0,1,0,12.31,18l23.29-16.22a32,32,0,0,0,37.24-.34l14.76,16.93a25.24,25.24,0,1,0,27.5-14.61Z"/></svg>